# xmcd CD database file
#
# Track frame offsets:
#	187
#	15740
#	30722
#	46060
#	58787
#	71167
#	88865
#	102495
#	114707
#	133950
#	145472
#	159750
#
# Disc length: 2327 seconds
#
# Revision: 0
# Processed by: cddbd v1.5.1PL0 Copyright (c) Steve Scherf et al.
# Submitted via: CDex 1.51
#
DISCID=ad09150c
DTITLE=Helen Merrill - Sings Screen Favorites
DYEAR=1996
DGENRE=Jazz
TTITLE0=Three Coins In The Fountain
TTITLE1=To Love Again
TTITLE2=Theme From "Picnic"
TTITLE3=The Third Man Theme
TTITLE4=East Of Eden
TTITLE5=Boy On A Dolphin
TTITLE6=Forbidden Games
TTITLE7=Under Paris Skies
TTITLE8=I Will Wait For You
TTITLE9=Love Theme From "La Strada" (Traveling Down The Lonely Road)
TTITLE10=Mack The Knife
TTITLE11=Summertime In Venice
EXTD=YEAR: 1996
EXTT0=
EXTT1=
EXTT2=
EXTT3=
EXTT4=
EXTT5=
EXTT6=
EXTT7=
EXTT8=
EXTT9=
EXTT10=
EXTT11=
PLAYORDER=
